# MagicaVoxel @ Ephtracy

# group
o 

# material
mtllib Arrow.mtl
usemtl palette

# normals
vn -1 0 0
vn 1 0 0
vn 0 0 1
vn 0 0 -1
vn 0 -1 0
vn 0 1 0

# texcoords
vt 0.373047 0.5
vt 0.958984 0.5
vt 0.978516 0.5
vt 0.982422 0.5
vt 0.994141 0.5

# verts
v 0.3 2.3 -2
v 0.3 2.3 -2.1
v 0.3 2.4 -2
v 0.3 2.4 -2.1
v 0.4 2.2 -2
v 0.4 2.2 -2.1
v 0.4 2.3 -1.9
v 0.4 2.3 -2
v 0.4 2.3 -2.1
v 0.4 2.3 -2.2
v 0.4 2.4 -1.9
v 0.4 2.4 -2
v 0.4 2.4 -2.1
v 0.4 2.4 -2.2
v 0.4 2.5 -2
v 0.4 2.5 -2.1
v 0.5 2.1 -2
v 0.5 2.1 -2.1
v 0.5 2.2 -2
v 0.5 2.2 -2.1
v 0.5 2.3 -1.8
v 0.5 2.3 -1.9
v 0.5 2.3 -2.2
v 0.5 2.3 -2.3
v 0.5 2.4 -1.8
v 0.5 2.4 -1.9
v 0.5 2.4 -2.2
v 0.5 2.4 -2.3
v 0.5 2.5 -2
v 0.5 2.5 -2.1
v 0.5 2.6 -2
v 0.5 2.6 -2.1
v 0.6 2 -2
v 0.6 2 -2.1
v 0.6 2.1 -2
v 0.6 2.1 -2.1
v 0.6 2.3 -1.7
v 0.6 2.3 -1.8
v 0.6 2.3 -2.3
v 0.6 2.3 -2.4
v 0.6 2.4 -1.7
v 0.6 2.4 -1.8
v 0.6 2.4 -2.3
v 0.6 2.4 -2.4
v 0.6 2.6 -2
v 0.6 2.6 -2.1
v 0.6 2.7 -2
v 0.6 2.7 -2.1
v 2.3 2.2 -2
v 2.3 2.2 -2.1
v 2.3 2.3 -1.9
v 2.3 2.3 -2
v 2.3 2.3 -2.1
v 2.3 2.3 -2.2
v 2.3 2.4 -1.9
v 2.3 2.4 -2
v 2.3 2.4 -2.1
v 2.3 2.4 -2.2
v 2.3 2.5 -2
v 2.3 2.5 -2.1
v 0.7 2 -2
v 0.7 2 -2.1
v 0.7 2.1 -2
v 0.7 2.1 -2.1
v 0.7 2.3 -1.7
v 0.7 2.3 -1.8
v 0.7 2.3 -2.3
v 0.7 2.3 -2.4
v 0.7 2.4 -1.7
v 0.7 2.4 -1.8
v 0.7 2.4 -2.3
v 0.7 2.4 -2.4
v 0.7 2.6 -2
v 0.7 2.6 -2.1
v 0.7 2.7 -2
v 0.7 2.7 -2.1
v 0.8 2.1 -2
v 0.8 2.1 -2.1
v 0.8 2.2 -2
v 0.8 2.2 -2.1
v 0.8 2.3 -1.8
v 0.8 2.3 -1.9
v 0.8 2.3 -2.2
v 0.8 2.3 -2.3
v 0.8 2.4 -1.8
v 0.8 2.4 -1.9
v 0.8 2.4 -2.2
v 0.8 2.4 -2.3
v 0.8 2.5 -2
v 0.8 2.5 -2.1
v 0.8 2.6 -2
v 0.8 2.6 -2.1
v 0.9 2.2 -2
v 0.9 2.2 -2.1
v 0.9 2.3 -1.9
v 0.9 2.3 -2
v 0.9 2.3 -2.1
v 0.9 2.3 -2.2
v 0.9 2.4 -1.9
v 0.9 2.4 -2
v 0.9 2.4 -2.1
v 0.9 2.4 -2.2
v 0.9 2.5 -2
v 0.9 2.5 -2.1
v 2.6 2.2 -2
v 2.6 2.2 -2.1
v 2.6 2.3 -1.9
v 2.6 2.3 -2
v 2.6 2.3 -2.1
v 2.6 2.3 -2.2
v 2.6 2.4 -1.9
v 2.6 2.4 -2
v 2.6 2.4 -2.1
v 2.6 2.4 -2.2
v 2.6 2.5 -2
v 2.6 2.5 -2.1
v 2.7 2.3 -2
v 2.7 2.3 -2.1
v 2.7 2.4 -2
v 2.7 2.4 -2.1
v 0.6 2.3 -1.7
v 0.6 2.4 -1.7
v 0.7 2.3 -1.7
v 0.7 2.4 -1.7
v 0.5 2.3 -1.8
v 0.5 2.4 -1.8
v 0.6 2.3 -1.8
v 0.6 2.4 -1.8
v 0.7 2.3 -1.8
v 0.7 2.4 -1.8
v 0.8 2.3 -1.8
v 0.8 2.4 -1.8
v 0.4 2.3 -1.9
v 0.4 2.4 -1.9
v 0.5 2.3 -1.9
v 0.5 2.4 -1.9
v 0.8 2.3 -1.9
v 0.8 2.4 -1.9
v 0.9 2.3 -1.9
v 0.9 2.4 -1.9
v 2.3 2.3 -1.9
v 2.3 2.4 -1.9
v 2.6 2.3 -1.9
v 2.6 2.4 -1.9
v 0.3 2.3 -2
v 0.3 2.4 -2
v 0.4 2.2 -2
v 0.4 2.3 -2
v 0.4 2.4 -2
v 0.4 2.5 -2
v 0.5 2.1 -2
v 0.5 2.2 -2
v 0.5 2.3 -2
v 0.5 2.4 -2
v 0.5 2.5 -2
v 0.5 2.6 -2
v 0.6 2 -2
v 0.6 2.1 -2
v 0.6 2.3 -2
v 0.6 2.4 -2
v 0.6 2.6 -2
v 0.6 2.7 -2
v 0.7 2 -2
v 0.7 2.1 -2
v 0.7 2.6 -2
v 0.7 2.7 -2
v 0.8 2.1 -2
v 0.8 2.2 -2
v 0.8 2.5 -2
v 0.8 2.6 -2
v 0.9 2.2 -2
v 0.9 2.3 -2
v 0.9 2.4 -2
v 0.9 2.5 -2
v 2.3 2.2 -2
v 2.3 2.3 -2
v 2.3 2.4 -2
v 2.3 2.5 -2
v 2.6 2.2 -2
v 2.6 2.3 -2
v 2.6 2.4 -2
v 2.6 2.5 -2
v 2.7 2.3 -2
v 2.7 2.4 -2
v 0.3 2.3 -2.1
v 0.3 2.4 -2.1
v 0.4 2.2 -2.1
v 0.4 2.3 -2.1
v 0.4 2.4 -2.1
v 0.4 2.5 -2.1
v 0.5 2.1 -2.1
v 0.5 2.2 -2.1
v 0.5 2.3 -2.1
v 0.5 2.4 -2.1
v 0.5 2.5 -2.1
v 0.5 2.6 -2.1
v 0.6 2 -2.1
v 0.6 2.1 -2.1
v 0.6 2.3 -2.1
v 0.6 2.4 -2.1
v 0.6 2.6 -2.1
v 0.6 2.7 -2.1
v 0.7 2 -2.1
v 0.7 2.1 -2.1
v 0.7 2.6 -2.1
v 0.7 2.7 -2.1
v 0.8 2.1 -2.1
v 0.8 2.2 -2.1
v 0.8 2.5 -2.1
v 0.8 2.6 -2.1
v 0.9 2.2 -2.1
v 0.9 2.3 -2.1
v 0.9 2.4 -2.1
v 0.9 2.5 -2.1
v 2.3 2.2 -2.1
v 2.3 2.3 -2.1
v 2.3 2.4 -2.1
v 2.3 2.5 -2.1
v 2.6 2.2 -2.1
v 2.6 2.3 -2.1
v 2.6 2.4 -2.1
v 2.6 2.5 -2.1
v 2.7 2.3 -2.1
v 2.7 2.4 -2.1
v 0.4 2.3 -2.2
v 0.4 2.4 -2.2
v 0.5 2.3 -2.2
v 0.5 2.4 -2.2
v 0.8 2.3 -2.2
v 0.8 2.4 -2.2
v 0.9 2.3 -2.2
v 0.9 2.4 -2.2
v 2.3 2.3 -2.2
v 2.3 2.4 -2.2
v 2.6 2.3 -2.2
v 2.6 2.4 -2.2
v 0.5 2.3 -2.3
v 0.5 2.4 -2.3
v 0.6 2.3 -2.3
v 0.6 2.4 -2.3
v 0.7 2.3 -2.3
v 0.7 2.4 -2.3
v 0.8 2.3 -2.3
v 0.8 2.4 -2.3
v 0.6 2.3 -2.4
v 0.6 2.4 -2.4
v 0.7 2.3 -2.4
v 0.7 2.4 -2.4
v 0.6 2 -2
v 0.7 2 -2
v 0.6 2 -2.1
v 0.7 2 -2.1
v 0.5 2.1 -2
v 0.6 2.1 -2
v 0.7 2.1 -2
v 0.8 2.1 -2
v 0.5 2.1 -2.1
v 0.6 2.1 -2.1
v 0.7 2.1 -2.1
v 0.8 2.1 -2.1
v 0.4 2.2 -2
v 0.5 2.2 -2
v 0.8 2.2 -2
v 0.9 2.2 -2
v 2.3 2.2 -2
v 2.6 2.2 -2
v 0.4 2.2 -2.1
v 0.5 2.2 -2.1
v 0.8 2.2 -2.1
v 0.9 2.2 -2.1
v 2.3 2.2 -2.1
v 2.6 2.2 -2.1
v 0.6 2.3 -1.7
v 0.7 2.3 -1.7
v 0.5 2.3 -1.8
v 0.6 2.3 -1.8
v 0.7 2.3 -1.8
v 0.8 2.3 -1.8
v 0.4 2.3 -1.9
v 0.5 2.3 -1.9
v 0.8 2.3 -1.9
v 0.9 2.3 -1.9
v 2.3 2.3 -1.9
v 2.6 2.3 -1.9
v 0.3 2.3 -2
v 0.4 2.3 -2
v 0.5 2.3 -2
v 0.6 2.3 -2
v 0.9 2.3 -2
v 2.3 2.3 -2
v 2.6 2.3 -2
v 2.7 2.3 -2
v 0.3 2.3 -2.1
v 0.4 2.3 -2.1
v 0.5 2.3 -2.1
v 0.6 2.3 -2.1
v 0.9 2.3 -2.1
v 2.3 2.3 -2.1
v 2.6 2.3 -2.1
v 2.7 2.3 -2.1
v 0.4 2.3 -2.2
v 0.5 2.3 -2.2
v 0.8 2.3 -2.2
v 0.9 2.3 -2.2
v 2.3 2.3 -2.2
v 2.6 2.3 -2.2
v 0.5 2.3 -2.3
v 0.6 2.3 -2.3
v 0.7 2.3 -2.3
v 0.8 2.3 -2.3
v 0.6 2.3 -2.4
v 0.7 2.3 -2.4
v 0.6 2.4 -1.7
v 0.7 2.4 -1.7
v 0.5 2.4 -1.8
v 0.6 2.4 -1.8
v 0.7 2.4 -1.8
v 0.8 2.4 -1.8
v 0.4 2.4 -1.9
v 0.5 2.4 -1.9
v 0.8 2.4 -1.9
v 0.9 2.4 -1.9
v 2.3 2.4 -1.9
v 2.6 2.4 -1.9
v 0.3 2.4 -2
v 0.4 2.4 -2
v 0.5 2.4 -2
v 0.6 2.4 -2
v 0.9 2.4 -2
v 2.3 2.4 -2
v 2.6 2.4 -2
v 2.7 2.4 -2
v 0.3 2.4 -2.1
v 0.4 2.4 -2.1
v 0.5 2.4 -2.1
v 0.6 2.4 -2.1
v 0.9 2.4 -2.1
v 2.3 2.4 -2.1
v 2.6 2.4 -2.1
v 2.7 2.4 -2.1
v 0.4 2.4 -2.2
v 0.5 2.4 -2.2
v 0.8 2.4 -2.2
v 0.9 2.4 -2.2
v 2.3 2.4 -2.2
v 2.6 2.4 -2.2
v 0.5 2.4 -2.3
v 0.6 2.4 -2.3
v 0.7 2.4 -2.3
v 0.8 2.4 -2.3
v 0.6 2.4 -2.4
v 0.7 2.4 -2.4
v 0.4 2.5 -2
v 0.5 2.5 -2
v 0.8 2.5 -2
v 0.9 2.5 -2
v 2.3 2.5 -2
v 2.6 2.5 -2
v 0.4 2.5 -2.1
v 0.5 2.5 -2.1
v 0.8 2.5 -2.1
v 0.9 2.5 -2.1
v 2.3 2.5 -2.1
v 2.6 2.5 -2.1
v 0.5 2.6 -2
v 0.6 2.6 -2
v 0.7 2.6 -2
v 0.8 2.6 -2
v 0.5 2.6 -2.1
v 0.6 2.6 -2.1
v 0.7 2.6 -2.1
v 0.8 2.6 -2.1
v 0.6 2.7 -2
v 0.7 2.7 -2
v 0.6 2.7 -2.1
v 0.7 2.7 -2.1

# faces
f 3/5/1 2/5/1 1/5/1
f 4/5/1 2/5/1 3/5/1
f 8/4/1 6/4/1 5/4/1
f 9/4/1 6/4/1 8/4/1
f 11/4/1 8/4/1 7/4/1
f 12/4/1 8/4/1 11/4/1
f 13/4/1 10/4/1 9/4/1
f 14/4/1 10/4/1 13/4/1
f 15/4/1 13/4/1 12/4/1
f 16/4/1 13/4/1 15/4/1
f 19/3/1 18/3/1 17/3/1
f 20/3/1 18/3/1 19/3/1
f 25/3/1 22/3/1 21/3/1
f 26/3/1 22/3/1 25/3/1
f 27/3/1 24/3/1 23/3/1
f 28/3/1 24/3/1 27/3/1
f 31/3/1 30/3/1 29/3/1
f 32/3/1 30/3/1 31/3/1
f 35/2/1 34/2/1 33/2/1
f 36/2/1 34/2/1 35/2/1
f 41/2/1 38/2/1 37/2/1
f 42/2/1 38/2/1 41/2/1
f 43/2/1 40/2/1 39/2/1
f 44/2/1 40/2/1 43/2/1
f 47/2/1 46/2/1 45/2/1
f 48/2/1 46/2/1 47/2/1
f 52/4/1 50/4/1 49/4/1
f 53/4/1 50/4/1 52/4/1
f 55/4/1 52/4/1 51/4/1
f 56/4/1 52/4/1 55/4/1
f 57/4/1 54/4/1 53/4/1
f 58/4/1 54/4/1 57/4/1
f 59/4/1 57/4/1 56/4/1
f 60/4/1 57/4/1 59/4/1
f 61/2/2 62/2/2 63/2/2
f 63/2/2 62/2/2 64/2/2
f 65/2/2 66/2/2 69/2/2
f 69/2/2 66/2/2 70/2/2
f 67/2/2 68/2/2 71/2/2
f 71/2/2 68/2/2 72/2/2
f 73/2/2 74/2/2 75/2/2
f 75/2/2 74/2/2 76/2/2
f 77/2/2 78/2/2 79/2/2
f 79/2/2 78/2/2 80/2/2
f 81/2/2 82/2/2 85/2/2
f 85/2/2 82/2/2 86/2/2
f 83/2/2 84/2/2 87/2/2
f 87/2/2 84/2/2 88/2/2
f 89/2/2 90/2/2 91/2/2
f 91/2/2 90/2/2 92/2/2
f 93/2/2 94/2/2 96/2/2
f 96/2/2 94/2/2 97/2/2
f 95/2/2 96/2/2 99/2/2
f 99/2/2 96/2/2 100/2/2
f 97/2/2 98/2/2 101/2/2
f 101/2/2 98/2/2 102/2/2
f 100/2/2 101/2/2 103/2/2
f 103/2/2 101/2/2 104/2/2
f 105/4/2 106/4/2 108/4/2
f 108/4/2 106/4/2 109/4/2
f 107/4/2 108/4/2 111/4/2
f 111/4/2 108/4/2 112/4/2
f 109/4/2 110/4/2 113/4/2
f 113/4/2 110/4/2 114/4/2
f 112/4/2 113/4/2 115/4/2
f 115/4/2 113/4/2 116/4/2
f 117/4/2 118/4/2 119/4/2
f 119/4/2 118/4/2 120/4/2
f 123/2/3 122/2/3 121/2/3
f 124/2/3 122/2/3 123/2/3
f 127/3/3 126/3/3 125/3/3
f 128/3/3 126/3/3 127/3/3
f 131/2/3 130/2/3 129/2/3
f 132/2/3 130/2/3 131/2/3
f 135/4/3 134/4/3 133/4/3
f 136/4/3 134/4/3 135/4/3
f 139/2/3 138/2/3 137/2/3
f 140/2/3 138/2/3 139/2/3
f 143/4/3 142/4/3 141/4/3
f 144/4/3 142/4/3 143/4/3
f 148/5/3 146/5/3 145/5/3
f 149/5/3 146/5/3 148/5/3
f 152/4/3 148/4/3 147/4/3
f 153/4/3 148/4/3 152/4/3
f 154/4/3 150/4/3 149/4/3
f 155/4/3 150/4/3 154/4/3
f 158/3/3 153/3/3 152/3/3
f 158/3/3 152/3/3 151/3/3
f 159/3/3 153/3/3 158/3/3
f 160/3/3 156/3/3 155/3/3
f 160/3/3 155/3/3 154/3/3
f 161/3/3 156/3/3 160/3/3
f 163/2/3 159/2/3 158/2/3
f 163/2/3 158/2/3 157/2/3
f 164/2/3 159/2/3 163/2/3
f 165/2/3 162/2/3 161/2/3
f 165/2/3 161/2/3 160/2/3
f 166/2/3 162/2/3 165/2/3
f 167/2/3 159/2/3 164/2/3
f 168/2/3 159/2/3 167/2/3
f 169/2/3 165/2/3 160/2/3
f 170/2/3 165/2/3 169/2/3
f 171/2/3 159/2/3 168/2/3
f 172/2/3 159/2/3 171/2/3
f 173/2/3 169/2/3 160/2/3
f 174/2/3 169/2/3 173/2/3
f 176/1/3 173/1/3 172/1/3
f 177/1/3 173/1/3 176/1/3
f 179/4/3 176/4/3 175/4/3
f 180/4/3 176/4/3 179/4/3
f 181/4/3 178/4/3 177/4/3
f 182/4/3 178/4/3 181/4/3
f 183/4/3 181/4/3 180/4/3
f 184/4/3 181/4/3 183/4/3
f 185/5/4 186/5/4 188/5/4
f 188/5/4 186/5/4 189/5/4
f 187/4/4 188/4/4 192/4/4
f 192/4/4 188/4/4 193/4/4
f 189/4/4 190/4/4 194/4/4
f 194/4/4 190/4/4 195/4/4
f 192/3/4 193/3/4 198/3/4
f 191/3/4 192/3/4 198/3/4
f 198/3/4 193/3/4 199/3/4
f 195/3/4 196/3/4 200/3/4
f 194/3/4 195/3/4 200/3/4
f 200/3/4 196/3/4 201/3/4
f 198/2/4 199/2/4 203/2/4
f 197/2/4 198/2/4 203/2/4
f 203/2/4 199/2/4 204/2/4
f 201/2/4 202/2/4 205/2/4
f 200/2/4 201/2/4 205/2/4
f 205/2/4 202/2/4 206/2/4
f 204/2/4 199/2/4 207/2/4
f 207/2/4 199/2/4 208/2/4
f 200/2/4 205/2/4 209/2/4
f 209/2/4 205/2/4 210/2/4
f 208/2/4 199/2/4 211/2/4
f 211/2/4 199/2/4 212/2/4
f 200/2/4 209/2/4 213/2/4
f 213/2/4 209/2/4 214/2/4
f 212/1/4 213/1/4 216/1/4
f 216/1/4 213/1/4 217/1/4
f 215/4/4 216/4/4 219/4/4
f 219/4/4 216/4/4 220/4/4
f 217/4/4 218/4/4 221/4/4
f 221/4/4 218/4/4 222/4/4
f 220/4/4 221/4/4 223/4/4
f 223/4/4 221/4/4 224/4/4
f 225/4/4 226/4/4 227/4/4
f 227/4/4 226/4/4 228/4/4
f 229/2/4 230/2/4 231/2/4
f 231/2/4 230/2/4 232/2/4
f 233/4/4 234/4/4 235/4/4
f 235/4/4 234/4/4 236/4/4
f 237/3/4 238/3/4 239/3/4
f 239/3/4 238/3/4 240/3/4
f 241/2/4 242/2/4 243/2/4
f 243/2/4 242/2/4 244/2/4
f 245/2/4 246/2/4 247/2/4
f 247/2/4 246/2/4 248/2/4
f 251/2/5 250/2/5 249/2/5
f 252/2/5 250/2/5 251/2/5
f 257/3/5 254/3/5 253/3/5
f 258/3/5 254/3/5 257/3/5
f 259/2/5 256/2/5 255/2/5
f 260/2/5 256/2/5 259/2/5
f 267/4/5 262/4/5 261/4/5
f 268/4/5 262/4/5 267/4/5
f 269/2/5 264/2/5 263/2/5
f 270/2/5 264/2/5 269/2/5
f 271/4/5 266/4/5 265/4/5
f 272/4/5 266/4/5 271/4/5
f 276/2/5 274/2/5 273/2/5
f 277/2/5 274/2/5 276/2/5
f 280/3/5 276/3/5 275/3/5
f 281/2/5 278/2/5 277/2/5
f 281/2/5 277/2/5 276/2/5
f 286/4/5 280/4/5 279/4/5
f 287/3/5 276/3/5 280/3/5
f 287/4/5 280/4/5 286/4/5
f 288/2/5 281/2/5 276/2/5
f 288/3/5 276/3/5 287/3/5
f 288/2/5 282/2/5 281/2/5
f 289/2/5 282/2/5 288/2/5
f 290/4/5 284/4/5 283/4/5
f 291/4/5 284/4/5 290/4/5
f 293/5/5 286/5/5 285/5/5
f 294/5/5 286/5/5 293/5/5
f 297/1/5 290/1/5 289/1/5
f 298/1/5 290/1/5 297/1/5
f 299/4/5 292/4/5 291/4/5
f 300/4/5 292/4/5 299/4/5
f 301/4/5 295/4/5 294/4/5
f 302/3/5 296/3/5 295/3/5
f 302/4/5 295/4/5 301/4/5
f 303/2/5 297/2/5 296/2/5
f 304/2/5 297/2/5 303/2/5
f 305/4/5 299/4/5 298/4/5
f 306/4/5 299/4/5 305/4/5
f 307/3/5 296/3/5 302/3/5
f 308/2/5 303/2/5 296/2/5
f 308/3/5 296/3/5 307/3/5
f 309/2/5 303/2/5 308/2/5
f 310/2/5 303/2/5 309/2/5
f 311/2/5 309/2/5 308/2/5
f 312/2/5 309/2/5 311/2/5
f 313/2/6 314/2/6 316/2/6
f 316/2/6 314/2/6 317/2/6
f 315/3/6 316/3/6 320/3/6
f 317/2/6 318/2/6 321/2/6
f 316/2/6 317/2/6 321/2/6
f 319/4/6 320/4/6 326/4/6
f 320/3/6 316/3/6 327/3/6
f 326/4/6 320/4/6 327/4/6
f 316/2/6 321/2/6 328/2/6
f 327/3/6 316/3/6 328/3/6
f 321/2/6 322/2/6 328/2/6
f 328/2/6 322/2/6 329/2/6
f 323/4/6 324/4/6 330/4/6
f 330/4/6 324/4/6 331/4/6
f 325/5/6 326/5/6 333/5/6
f 333/5/6 326/5/6 334/5/6
f 329/1/6 330/1/6 337/1/6
f 337/1/6 330/1/6 338/1/6
f 331/4/6 332/4/6 339/4/6
f 339/4/6 332/4/6 340/4/6
f 334/4/6 335/4/6 341/4/6
f 335/3/6 336/3/6 342/3/6
f 341/4/6 335/4/6 342/4/6
f 336/2/6 337/2/6 343/2/6
f 343/2/6 337/2/6 344/2/6
f 338/4/6 339/4/6 345/4/6
f 345/4/6 339/4/6 346/4/6
f 342/3/6 336/3/6 347/3/6
f 336/2/6 343/2/6 348/2/6
f 347/3/6 336/3/6 348/3/6
f 348/2/6 343/2/6 349/2/6
f 349/2/6 343/2/6 350/2/6
f 348/2/6 349/2/6 351/2/6
f 351/2/6 349/2/6 352/2/6
f 353/4/6 354/4/6 359/4/6
f 359/4/6 354/4/6 360/4/6
f 355/2/6 356/2/6 361/2/6
f 361/2/6 356/2/6 362/2/6
f 357/4/6 358/4/6 363/4/6
f 363/4/6 358/4/6 364/4/6
f 365/3/6 366/3/6 369/3/6
f 369/3/6 366/3/6 370/3/6
f 367/2/6 368/2/6 371/2/6
f 371/2/6 368/2/6 372/2/6
f 373/2/6 374/2/6 375/2/6
f 375/2/6 374/2/6 376/2/6
